<svg xmlns="http://www.w3.org/2000/svg" width="27" height="27" viewBox="0 0 27 27">
    <g fill="none" fill-rule="evenodd">
        <circle cx="13.347" cy="13.347" r="13.347" fill="#FF2558" fill-rule="nonzero"/>
        <path fill="#FFF" d="M16.61 16.148c-.524 0-.992.207-1.35.53l-4.907-2.856c.035-.158.062-.317.062-.482 0-.165-.027-.323-.062-.481l4.852-2.829c.372.344.86.558 1.404.558a2.062 2.062 0 0 0 2.065-2.065 2.062 2.062 0 0 0-2.065-2.065 2.062 2.062 0 0 0-2.065 2.065c0 .165.028.323.062.482l-4.851 2.828a2.062 2.062 0 0 0-3.469 1.507 2.062 2.062 0 0 0 3.469 1.507l4.9 2.863a1.942 1.942 0 0 0-.055.448c0 1.108.901 2.01 2.01 2.01 1.107 0 2.009-.902 2.009-2.01 0-1.108-.902-2.01-2.01-2.01z"/>
    </g>
</svg>
